<?xml version="1.0" encoding="utf-8"?>
<!-- Generator: Adobe Illustrator 18.1.1, SVG Export Plug-In . SVG Version: 6.00 Build 0)  -->
<svg version="1.1" id="Layer_1" xmlns="http://www.w3.org/2000/svg" xmlns:xlink="http://www.w3.org/1999/xlink" x="0px" y="0px"
	 viewBox="0 0 100 100" enable-background="new 0 0 100 100" xml:space="preserve">
<g>
	<path id="letterw_59_" opacity="0.74" fill="#FFFFFF" d="M94.9,22.5c0,0.3-0.1,0.6-0.3,0.9c-0.2,0.3-0.4,0.4-0.7,0.4
		c-2,0.2-3.6,0.8-4.8,1.9c-1.3,1.1-2.5,3.1-3.9,6.2L64.8,77.8c-0.1,0.4-0.5,0.6-1.1,0.6c-0.5,0-0.9-0.2-1.1-0.6L51.2,53.9L38,77.8
		c-0.3,0.4-0.6,0.6-1.1,0.6c-0.6,0-1-0.2-1.2-0.6l-20-45.9c-1.2-2.8-2.6-4.8-4-6c-1.4-1.1-3.3-1.8-5.8-2.1c-0.2,0-0.4-0.1-0.6-0.3
		c-0.2-0.2-0.3-0.5-0.3-0.8c0-0.7,0.2-1.1,0.6-1.1c1.8,0,3.6,0.1,5.6,0.2c1.8,0.2,3.5,0.2,5.1,0.2c1.6,0,3.5-0.1,5.8-0.2
		c2.3-0.2,4.4-0.2,6.1-0.2c0.4,0,0.6,0.4,0.6,1.1c0,0.7-0.1,1.1-0.4,1.1c-1.8,0.1-3.2,0.6-4.2,1.4c-1,0.8-1.5,1.8-1.5,3
		c0,0.6,0.2,1.4,0.6,2.4L40,67.9l9.4-17.7l-8.7-18.3c-1.6-3.3-2.9-5.4-3.9-6.3c-1-0.9-2.5-1.5-4.6-1.7c-0.2,0-0.4-0.1-0.5-0.3
		c-0.2-0.2-0.3-0.5-0.3-0.8c0-0.7,0.2-1.1,0.6-1.1c1.8,0,3.4,0.1,4.9,0.2c1.4,0.2,3,0.2,4.6,0.2c1.6,0,3.3-0.1,5.1-0.2
		c1.8-0.2,3.6-0.2,5.4-0.2c0.4,0,0.6,0.4,0.6,1.1c0,0.7-0.1,1.1-0.4,1.1c-3.6,0.2-5.4,1.3-5.4,3c0,0.8,0.4,2,1.2,3.7l5.8,11.7
		l5.8-10.7c0.8-1.5,1.2-2.8,1.2-3.8c0-2.4-1.8-3.7-5.4-3.9c-0.3,0-0.5-0.4-0.5-1.1c0-0.3,0.1-0.5,0.2-0.8c0.2-0.2,0.3-0.4,0.5-0.4
		c1.3,0,2.8,0.1,4.7,0.2c1.8,0.2,3.3,0.2,4.4,0.2c0.8,0,2-0.1,3.6-0.2c2-0.2,3.7-0.3,5.1-0.3c0.3,0,0.5,0.3,0.5,1
		c0,0.9-0.3,1.3-0.9,1.3c-2.1,0.2-3.7,0.8-5,1.7s-2.8,3-4.7,6.3l-7.7,14.2l10.4,21.2l15.3-35.7c0.5-1.3,0.8-2.5,0.8-3.6
		c0-2.6-1.8-4-5.4-4.2c-0.3,0-0.5-0.4-0.5-1.1c0-0.7,0.2-1.1,0.7-1.1c1.3,0,2.8,0.1,4.6,0.2c1.6,0.2,3,0.2,4.2,0.2
		c1.2,0,2.5-0.1,4.1-0.2c1.6-0.2,3-0.2,4.3-0.2C94.7,21.6,94.9,21.9,94.9,22.5z"/>
</g>
</svg>
